<?xml version="1.0" encoding="utf-8"?>
<!-- Generator: Adobe Illustrator 16.0.0, SVG Export Plug-In . SVG Version: 6.00 Build 0)  -->
<!DOCTYPE svg PUBLIC "-//W3C//DTD SVG 1.1//EN" "http://www.w3.org/Graphics/SVG/1.1/DTD/svg11.dtd">
<svg version="1.1" id="Layer_1" xmlns="http://www.w3.org/2000/svg" xmlns:xlink="http://www.w3.org/1999/xlink" x="0px" y="0px"
	 width="484.665px" height="131.564px" viewBox="0 0 484.665 131.564" enable-background="new 0 0 484.665 131.564"
	 xml:space="preserve">
<g id="layer1" inkscape:label="Layer 1" inkscape:groupmode="layer">
	<path id="path2558" fill="#010101" d="M7.839,63.125c-1.012-0.332-1.813-1.079-2.042-1.903c-0.091-0.329-0.135-7.048-0.135-20.896
		L5.661,19.915H5.149H4.636v7.705c0,7.553-0.005,7.714-0.265,8.171c-0.337,0.592-0.714,0.869-1.454,1.067
		c-1.094,0.292-2.289-0.266-2.719-1.27c-0.276-0.646-0.258-17.869,0.02-18.937c0.626-2.406,2.656-4.378,5.024-4.88
		c1.247-0.264,12.777-0.267,14.021-0.004c1.267,0.269,2.354,0.876,3.317,1.852c0.99,1.004,1.453,1.818,1.797,3.166
		c0.24,0.939,0.253,1.443,0.253,9.627c0,7.481-0.026,8.698-0.197,9.107c-0.266,0.635-0.539,0.921-1.149,1.202
		c-1.012,0.464-2.298,0.166-2.896-0.673l-0.308-0.432l-0.035-7.851l-0.035-7.851h-0.51h-0.51v20.512
		c0,22.484,0.051,20.992-0.744,21.829c-0.628,0.662-1.268,0.912-2.333,0.912s-1.705-0.25-2.333-0.912
		c-0.779-0.821-0.744-0.185-0.744-13.37V36.833h-0.513h-0.513v12.052c0,9.822-0.032,12.129-0.173,12.465
		c-0.258,0.616-0.82,1.224-1.41,1.525C9.663,63.165,8.373,63.3,7.839,63.125z M10.722,10.335C9.173,9.782,8.215,8.929,7.538,7.498
		C7.162,6.707,7.135,6.554,7.135,5.237c0-1.333,0.023-1.46,0.415-2.254c1.954-3.969,7.594-3.979,9.545-0.017
		c0.404,0.82,0.422,0.924,0.422,2.335c0,1.357-0.029,1.536-0.358,2.206c-0.553,1.126-1.371,1.948-2.486,2.5
		c-0.867,0.428-1.086,0.481-2.137,0.518C11.655,10.555,11.206,10.508,10.722,10.335z"/>
</g>
<g id="layer1_1_" inkscape:label="Layer 1" inkscape:groupmode="layer">
	<path id="path2558_1_" fill="#010101" d="M37.921,63.125c-1.012-0.332-1.813-1.078-2.042-1.902
		c-0.091-0.329-0.135-7.049-0.135-20.896l-0.001-20.411H35.23h-0.513v7.705c0,7.554-0.005,7.714-0.265,8.171
		c-0.337,0.592-0.714,0.869-1.454,1.066c-1.094,0.293-2.289-0.266-2.719-1.27c-0.276-0.646-0.258-17.868,0.02-18.936
		c0.626-2.406,2.656-4.378,5.024-4.88c1.247-0.264,12.777-0.267,14.021-0.004c1.266,0.269,2.354,0.876,3.316,1.852
		c0.99,1.004,1.453,1.818,1.797,3.166c0.24,0.939,0.254,1.443,0.254,9.627c0,7.481-0.026,8.698-0.197,9.107
		c-0.266,0.635-0.539,0.922-1.148,1.201c-1.012,0.465-2.299,0.166-2.896-0.673l-0.309-0.432l-0.034-7.851l-0.035-7.851h-0.51h-0.51
		v20.512c0,22.484,0.051,20.991-0.743,21.829c-0.629,0.661-1.269,0.911-2.333,0.911s-1.704-0.25-2.333-0.911
		c-0.779-0.821-0.744-0.186-0.744-13.37V36.834h-0.513h-0.513v12.052c0,9.822-0.032,12.129-0.173,12.465
		c-0.258,0.616-0.82,1.224-1.41,1.524C39.744,63.165,38.454,63.301,37.921,63.125z M40.804,10.335
		c-1.549-0.554-2.507-1.407-3.185-2.837c-0.375-0.792-0.402-0.944-0.402-2.261c0-1.333,0.023-1.46,0.415-2.254
		c1.954-3.969,7.595-3.979,9.545-0.017c0.403,0.82,0.423,0.924,0.423,2.335c0,1.357-0.029,1.536-0.358,2.206
		c-0.554,1.126-1.37,1.948-2.486,2.5c-0.867,0.428-1.086,0.481-2.137,0.518C41.736,10.555,41.288,10.508,40.804,10.335z"/>
</g>
<g id="layer1_3_" inkscape:label="Layer 1" inkscape:groupmode="layer">
	<path id="path2558_3_" fill="#010101" d="M69.053,63.125c-1.012-0.332-1.813-1.078-2.042-1.902
		c-0.091-0.329-0.135-7.049-0.135-20.896l-0.001-20.411h-0.512H65.85v7.705c0,7.554-0.005,7.714-0.265,8.171
		c-0.337,0.592-0.714,0.869-1.454,1.066c-1.094,0.293-2.289-0.266-2.719-1.27c-0.276-0.646-0.258-17.868,0.02-18.936
		c0.626-2.406,2.656-4.378,5.024-4.88c1.247-0.264,12.777-0.267,14.021-0.004c1.267,0.269,2.354,0.876,3.317,1.852
		c0.99,1.004,1.453,1.818,1.797,3.166c0.24,0.939,0.253,1.443,0.253,9.627c0,7.481-0.026,8.698-0.197,9.107
		c-0.266,0.635-0.539,0.922-1.149,1.201c-1.012,0.465-2.298,0.166-2.896-0.673l-0.308-0.432l-0.035-7.851l-0.035-7.851h-0.51h-0.51
		v20.512c0,22.484,0.051,20.991-0.744,21.829c-0.628,0.661-1.268,0.911-2.333,0.911s-1.705-0.25-2.333-0.911
		c-0.779-0.821-0.744-0.186-0.744-13.37V36.834H73.54h-0.513v12.052c0,9.822-0.032,12.129-0.173,12.465
		c-0.258,0.616-0.82,1.224-1.41,1.524C70.876,63.165,69.586,63.301,69.053,63.125z M71.936,10.335
		c-1.549-0.554-2.507-1.407-3.185-2.837c-0.375-0.792-0.402-0.944-0.402-2.261c0-1.333,0.023-1.46,0.415-2.254
		c1.954-3.969,7.594-3.979,9.545-0.017c0.404,0.82,0.422,0.924,0.422,2.335c0,1.357-0.029,1.536-0.358,2.206
		c-0.553,1.126-1.371,1.948-2.486,2.5c-0.867,0.428-1.086,0.481-2.137,0.518C72.868,10.555,72.419,10.508,71.936,10.335z"/>
</g>
<g id="layer1_2_" inkscape:label="Layer 1" inkscape:groupmode="layer">
	<path id="path2558_2_" fill="#010101" d="M99.134,63.125c-1.012-0.332-1.813-1.078-2.042-1.902
		c-0.091-0.329-0.135-7.049-0.135-20.896l-0.001-20.411h-0.512h-0.513v7.705c0,7.554-0.005,7.714-0.265,8.171
		c-0.337,0.592-0.714,0.869-1.454,1.066c-1.094,0.293-2.289-0.266-2.719-1.27c-0.276-0.646-0.258-17.868,0.02-18.936
		c0.626-2.406,2.656-4.378,5.024-4.88c1.247-0.264,12.777-0.267,14.021-0.004c1.266,0.269,2.354,0.876,3.316,1.852
		c0.99,1.004,1.453,1.818,1.797,3.166c0.24,0.939,0.254,1.443,0.254,9.627c0,7.481-0.026,8.698-0.197,9.107
		c-0.266,0.635-0.539,0.922-1.148,1.201c-1.012,0.465-2.299,0.166-2.896-0.673l-0.309-0.432l-0.034-7.851l-0.035-7.851h-0.51h-0.51
		v20.512c0,22.484,0.051,20.991-0.743,21.829c-0.629,0.661-1.269,0.911-2.333,0.911s-1.704-0.25-2.333-0.911
		c-0.779-0.821-0.744-0.186-0.744-13.37V36.834h-0.513h-0.513v12.052c0,9.822-0.032,12.129-0.173,12.465
		c-0.258,0.616-0.82,1.224-1.41,1.524C100.958,63.165,99.667,63.301,99.134,63.125z M102.017,10.335
		c-1.549-0.554-2.507-1.407-3.185-2.837c-0.375-0.792-0.402-0.944-0.402-2.261c0-1.333,0.023-1.46,0.415-2.254
		c1.954-3.969,7.595-3.979,9.545-0.017c0.403,0.82,0.423,0.924,0.423,2.335c0,1.357-0.029,1.536-0.358,2.206
		c-0.554,1.126-1.37,1.948-2.486,2.5c-0.867,0.428-1.086,0.481-2.137,0.518C102.95,10.555,102.501,10.508,102.017,10.335z"/>
</g>
<g id="layer1_7_" inkscape:label="Layer 1" inkscape:groupmode="layer">
	<path id="path2558_7_" fill="#010101" d="M129.544,63.125c-1.012-0.332-1.813-1.078-2.042-1.902
		c-0.091-0.329-0.135-7.049-0.135-20.896l-0.001-20.411h-0.512h-0.513v7.705c0,7.554-0.005,7.714-0.265,8.171
		c-0.337,0.592-0.714,0.869-1.454,1.066c-1.094,0.293-2.289-0.266-2.719-1.27c-0.276-0.646-0.258-17.868,0.02-18.936
		c0.626-2.406,2.656-4.378,5.024-4.88c1.247-0.264,12.777-0.267,14.021-0.004c1.267,0.269,2.354,0.876,3.317,1.852
		c0.99,1.004,1.453,1.818,1.797,3.166c0.24,0.939,0.253,1.443,0.253,9.627c0,7.481-0.026,8.698-0.197,9.107
		c-0.266,0.635-0.539,0.922-1.149,1.201c-1.012,0.465-2.298,0.166-2.896-0.673l-0.308-0.432l-0.035-7.851l-0.035-7.851h-0.51h-0.51
		v20.512c0,22.484,0.051,20.991-0.744,21.829c-0.628,0.661-1.268,0.911-2.333,0.911s-1.705-0.25-2.333-0.911
		c-0.779-0.821-0.744-0.186-0.744-13.37V36.834h-0.513h-0.513v12.052c0,9.822-0.032,12.129-0.173,12.465
		c-0.258,0.616-0.82,1.224-1.41,1.524C131.368,63.165,130.078,63.301,129.544,63.125z M132.427,10.335
		c-1.549-0.554-2.507-1.407-3.185-2.837c-0.375-0.792-0.402-0.944-0.402-2.261c0-1.333,0.023-1.46,0.415-2.254
		c1.954-3.969,7.594-3.979,9.545-0.017c0.404,0.82,0.422,0.924,0.422,2.335c0,1.357-0.029,1.536-0.358,2.206
		c-0.553,1.126-1.371,1.948-2.486,2.5c-0.867,0.428-1.086,0.481-2.137,0.518C133.36,10.555,132.911,10.508,132.427,10.335z"/>
</g>
<g id="layer1_6_" inkscape:label="Layer 1" inkscape:groupmode="layer">
	<path id="path2558_6_" fill="#010101" d="M159.626,63.125c-1.012-0.332-1.813-1.078-2.042-1.902
		c-0.091-0.329-0.135-7.049-0.135-20.896l-0.001-20.411h-0.512h-0.513v7.705c0,7.554-0.005,7.714-0.265,8.171
		c-0.337,0.592-0.714,0.869-1.454,1.066c-1.094,0.293-2.289-0.266-2.719-1.27c-0.276-0.646-0.258-17.868,0.02-18.936
		c0.626-2.406,2.656-4.378,5.024-4.88c1.247-0.264,12.777-0.267,14.021-0.004c1.266,0.269,2.354,0.876,3.316,1.852
		c0.99,1.004,1.453,1.818,1.797,3.166c0.24,0.939,0.254,1.443,0.254,9.627c0,7.481-0.026,8.698-0.197,9.107
		c-0.266,0.635-0.539,0.922-1.148,1.201c-1.012,0.465-2.299,0.166-2.896-0.673l-0.309-0.432l-0.034-7.851l-0.035-7.851h-0.51h-0.51
		v20.512c0,22.484,0.051,20.991-0.743,21.829c-0.629,0.661-1.269,0.911-2.333,0.911s-1.704-0.25-2.333-0.911
		c-0.779-0.821-0.744-0.186-0.744-13.37V36.834h-0.513H163.6v12.052c0,9.822-0.032,12.129-0.173,12.465
		c-0.258,0.616-0.82,1.224-1.41,1.524C161.449,63.165,160.159,63.301,159.626,63.125z M162.509,10.335
		c-1.549-0.554-2.507-1.407-3.185-2.837c-0.375-0.792-0.402-0.944-0.402-2.261c0-1.333,0.023-1.46,0.415-2.254
		c1.954-3.969,7.595-3.979,9.545-0.017c0.403,0.82,0.423,0.924,0.423,2.335c0,1.357-0.029,1.536-0.358,2.206
		c-0.554,1.126-1.37,1.948-2.486,2.5c-0.867,0.428-1.086,0.481-2.137,0.518C163.441,10.555,162.993,10.508,162.509,10.335z"/>
</g>
<g id="layer1_5_" inkscape:label="Layer 1" inkscape:groupmode="layer">
	<path id="path2558_5_" fill="#010101" d="M190.758,63.125c-1.012-0.332-1.813-1.078-2.042-1.902
		c-0.091-0.329-0.135-7.049-0.135-20.896l-0.001-20.411h-0.512h-0.513v7.705c0,7.554-0.005,7.714-0.265,8.171
		c-0.337,0.592-0.714,0.869-1.454,1.066c-1.094,0.293-2.289-0.266-2.719-1.27c-0.276-0.646-0.258-17.868,0.02-18.936
		c0.626-2.406,2.656-4.378,5.024-4.88c1.247-0.264,12.777-0.267,14.021-0.004c1.267,0.269,2.354,0.876,3.317,1.852
		c0.99,1.004,1.453,1.818,1.797,3.166c0.24,0.939,0.253,1.443,0.253,9.627c0,7.481-0.026,8.698-0.197,9.107
		c-0.266,0.635-0.539,0.922-1.149,1.201c-1.012,0.465-2.298,0.166-2.896-0.673l-0.308-0.432l-0.035-7.851l-0.035-7.851h-0.51h-0.51
		v20.512c0,22.484,0.051,20.991-0.744,21.829c-0.628,0.661-1.268,0.911-2.333,0.911s-1.705-0.25-2.333-0.911
		c-0.779-0.821-0.744-0.186-0.744-13.37V36.834h-0.513h-0.513v12.052c0,9.822-0.032,12.129-0.173,12.465
		c-0.258,0.616-0.82,1.224-1.41,1.524C192.581,63.165,191.291,63.301,190.758,63.125z M193.641,10.335
		c-1.549-0.554-2.507-1.407-3.185-2.837c-0.375-0.792-0.402-0.944-0.402-2.261c0-1.333,0.023-1.46,0.415-2.254
		c1.954-3.969,7.594-3.979,9.545-0.017c0.404,0.82,0.422,0.924,0.422,2.335c0,1.357-0.029,1.536-0.358,2.206
		c-0.553,1.126-1.371,1.948-2.486,2.5c-0.867,0.428-1.086,0.481-2.137,0.518C194.573,10.555,194.125,10.508,193.641,10.335z"/>
</g>
<g id="layer1_4_" inkscape:label="Layer 1" inkscape:groupmode="layer">
	<path id="path2558_4_" fill="#010101" d="M220.84,63.125c-1.012-0.332-1.814-1.078-2.043-1.902
		c-0.091-0.329-0.135-7.049-0.135-20.896l-0.001-20.411h-0.513h-0.512v7.705c0,7.554-0.006,7.714-0.266,8.171
		c-0.337,0.592-0.715,0.869-1.454,1.066c-1.094,0.293-2.289-0.266-2.719-1.27c-0.276-0.646-0.259-17.868,0.021-18.936
		c0.626-2.406,2.656-4.378,5.023-4.88c1.247-0.264,12.777-0.267,14.021-0.004c1.266,0.269,2.354,0.876,3.316,1.852
		c0.99,1.004,1.453,1.818,1.797,3.166c0.24,0.939,0.254,1.443,0.254,9.627c0,7.481-0.026,8.698-0.197,9.107
		c-0.266,0.635-0.539,0.922-1.148,1.201c-1.012,0.465-2.299,0.166-2.896-0.673l-0.309-0.432l-0.034-7.851l-0.035-7.851h-0.51h-0.51
		v20.512c0,22.484,0.051,20.991-0.743,21.829c-0.629,0.661-1.269,0.911-2.333,0.911s-1.704-0.25-2.333-0.911
		c-0.778-0.821-0.743-0.186-0.743-13.37V36.834h-0.513h-0.513v12.052c0,9.822-0.032,12.129-0.173,12.465
		c-0.258,0.616-0.82,1.224-1.41,1.524C222.662,63.165,221.373,63.301,220.84,63.125z M223.723,10.335
		c-1.55-0.554-2.508-1.407-3.186-2.837c-0.375-0.792-0.402-0.944-0.402-2.261c0-1.333,0.023-1.46,0.415-2.254
		c1.954-3.969,7.595-3.979,9.545-0.017c0.403,0.82,0.423,0.924,0.423,2.335c0,1.357-0.029,1.536-0.358,2.206
		c-0.554,1.126-1.37,1.948-2.486,2.5c-0.866,0.428-1.087,0.481-2.137,0.518C224.654,10.555,224.206,10.508,223.723,10.335z"/>
</g>
<g id="layer1_15_" inkscape:label="Layer 1" inkscape:groupmode="layer">
	<path id="path2558_15_" fill="#010101" d="M253.539,64.106c-1.012-0.332-1.813-1.078-2.042-1.902
		c-0.091-0.329-0.135-7.049-0.135-20.896l-0.001-20.411h-0.512h-0.513v7.705c0,7.554-0.005,7.714-0.265,8.171
		c-0.337,0.592-0.714,0.869-1.454,1.066c-1.094,0.293-2.289-0.266-2.719-1.27c-0.276-0.646-0.258-17.868,0.02-18.936
		c0.626-2.406,2.656-4.378,5.024-4.88c1.247-0.264,12.777-0.267,14.021-0.004c1.267,0.269,2.354,0.876,3.317,1.852
		c0.99,1.004,1.453,1.818,1.797,3.166c0.24,0.939,0.253,1.443,0.253,9.627c0,7.481-0.026,8.698-0.197,9.107
		c-0.266,0.635-0.539,0.922-1.149,1.201c-1.012,0.465-2.298,0.166-2.896-0.673l-0.308-0.432l-0.035-7.851l-0.035-7.851h-0.51h-0.51
		v20.512c0,22.484,0.051,20.991-0.744,21.829c-0.628,0.661-1.268,0.911-2.333,0.911s-1.705-0.25-2.333-0.911
		c-0.779-0.821-0.744-0.186-0.744-13.37V37.815h-0.513h-0.513v12.052c0,9.822-0.032,12.129-0.173,12.465
		c-0.258,0.616-0.82,1.224-1.41,1.524C255.362,64.146,254.072,64.282,253.539,64.106z M256.421,11.316
		c-1.549-0.554-2.507-1.407-3.185-2.837c-0.375-0.792-0.402-0.944-0.402-2.261c0-1.333,0.023-1.46,0.415-2.254
		c1.954-3.969,7.594-3.979,9.545-0.017c0.404,0.82,0.422,0.924,0.422,2.335c0,1.357-0.029,1.536-0.358,2.206
		c-0.553,1.126-1.371,1.948-2.486,2.5c-0.867,0.428-1.086,0.481-2.137,0.518C257.354,11.536,256.905,11.489,256.421,11.316z"/>
</g>
<g id="layer1_14_" inkscape:label="Layer 1" inkscape:groupmode="layer">
	<path id="path2558_14_" fill="#010101" d="M283.62,64.106c-1.012-0.332-1.813-1.078-2.042-1.902
		c-0.091-0.329-0.135-7.049-0.135-20.896l-0.001-20.411h-0.512h-0.513v7.705c0,7.554-0.005,7.714-0.265,8.171
		c-0.337,0.592-0.714,0.869-1.454,1.066c-1.094,0.293-2.289-0.266-2.719-1.27c-0.276-0.646-0.258-17.868,0.02-18.936
		c0.626-2.406,2.656-4.378,5.024-4.88c1.247-0.264,12.777-0.267,14.021-0.004c1.266,0.269,2.354,0.876,3.316,1.852
		c0.991,1.004,1.454,1.818,1.797,3.166c0.24,0.939,0.254,1.443,0.254,9.627c0,7.481-0.027,8.698-0.197,9.107
		c-0.266,0.635-0.539,0.922-1.148,1.201c-1.012,0.465-2.299,0.166-2.897-0.673l-0.309-0.432l-0.034-7.851l-0.035-7.851h-0.51h-0.51
		v20.512c0,22.484,0.051,20.991-0.743,21.829c-0.629,0.661-1.269,0.911-2.333,0.911s-1.704-0.25-2.333-0.911
		c-0.779-0.821-0.744-0.186-0.744-13.37V37.815h-0.513h-0.513v12.052c0,9.822-0.032,12.129-0.173,12.465
		c-0.258,0.616-0.82,1.224-1.41,1.524C285.443,64.146,284.153,64.282,283.62,64.106z M286.503,11.316
		c-1.549-0.554-2.507-1.407-3.185-2.837c-0.375-0.792-0.402-0.944-0.402-2.261c0-1.333,0.023-1.46,0.415-2.254
		c1.954-3.969,7.595-3.979,9.545-0.017c0.403,0.82,0.423,0.924,0.423,2.335c0,1.357-0.029,1.536-0.358,2.206
		c-0.554,1.126-1.37,1.948-2.486,2.5c-0.867,0.428-1.086,0.481-2.137,0.518C287.436,11.536,286.987,11.489,286.503,11.316z"/>
</g>
<g id="layer1_13_" inkscape:label="Layer 1" inkscape:groupmode="layer">
	<path id="path2558_13_" fill="#010101" d="M314.753,64.106c-1.012-0.332-1.814-1.078-2.043-1.902
		c-0.092-0.329-0.135-7.049-0.135-20.896l-0.002-20.411h-0.512h-0.512v7.705c0,7.554-0.006,7.714-0.266,8.171
		c-0.338,0.592-0.715,0.869-1.455,1.066c-1.094,0.293-2.289-0.266-2.719-1.27c-0.275-0.646-0.258-17.868,0.021-18.936
		c0.625-2.406,2.656-4.378,5.023-4.88c1.246-0.264,12.777-0.267,14.021-0.004c1.266,0.269,2.354,0.876,3.316,1.852
		c0.99,1.004,1.453,1.818,1.797,3.166c0.24,0.939,0.254,1.443,0.254,9.627c0,7.481-0.027,8.698-0.197,9.107
		c-0.266,0.635-0.539,0.922-1.148,1.201c-1.012,0.465-2.299,0.166-2.896-0.673l-0.309-0.432l-0.035-7.851l-0.035-7.851h-0.51h-0.51
		v20.512c0,22.484,0.051,20.991-0.742,21.829c-0.629,0.661-1.27,0.911-2.334,0.911s-1.703-0.25-2.332-0.911
		c-0.779-0.821-0.744-0.186-0.744-13.37V37.815h-0.512h-0.514v12.052c0,9.822-0.031,12.129-0.172,12.465
		c-0.258,0.616-0.82,1.224-1.41,1.524C316.575,64.146,315.286,64.282,314.753,64.106z M317.636,11.316
		c-1.551-0.554-2.508-1.407-3.186-2.837c-0.375-0.792-0.402-0.944-0.402-2.261c0-1.333,0.023-1.46,0.414-2.254
		c1.955-3.969,7.596-3.979,9.545-0.017c0.404,0.82,0.424,0.924,0.424,2.335c0,1.357-0.029,1.536-0.359,2.206
		c-0.553,1.126-1.369,1.948-2.486,2.5c-0.865,0.428-1.086,0.481-2.137,0.518C318.567,11.536,318.118,11.489,317.636,11.316z"/>
</g>
<g id="layer1_12_" inkscape:label="Layer 1" inkscape:groupmode="layer">
	<path id="path2558_12_" fill="#010101" d="M344.833,64.106c-1.012-0.332-1.813-1.078-2.041-1.902
		c-0.092-0.329-0.135-7.049-0.135-20.896l-0.002-20.411h-0.512h-0.514v7.705c0,7.554-0.004,7.714-0.264,8.171
		c-0.338,0.592-0.715,0.869-1.455,1.066c-1.094,0.293-2.289-0.266-2.719-1.27c-0.275-0.646-0.258-17.868,0.02-18.936
		c0.627-2.406,2.656-4.378,5.025-4.88c1.246-0.264,12.777-0.267,14.021-0.004c1.266,0.269,2.354,0.876,3.316,1.852
		c0.99,1.004,1.453,1.818,1.797,3.166c0.24,0.939,0.254,1.443,0.254,9.627c0,7.481-0.027,8.698-0.197,9.107
		c-0.266,0.635-0.539,0.922-1.148,1.201c-1.012,0.465-2.299,0.166-2.896-0.673l-0.309-0.432l-0.035-7.851l-0.035-7.851h-0.51h-0.51
		v20.512c0,22.484,0.051,20.991-0.742,21.829c-0.629,0.661-1.27,0.911-2.334,0.911s-1.703-0.25-2.332-0.911
		c-0.779-0.821-0.744-0.186-0.744-13.37V37.815h-0.512h-0.514v12.052c0,9.822-0.031,12.129-0.172,12.465
		c-0.26,0.616-0.82,1.224-1.41,1.524C346.657,64.146,345.366,64.282,344.833,64.106z M347.716,11.316
		c-1.549-0.554-2.506-1.407-3.184-2.837c-0.375-0.792-0.402-0.944-0.402-2.261c0-1.333,0.023-1.46,0.414-2.254
		c1.953-3.969,7.596-3.979,9.545-0.017c0.404,0.82,0.424,0.924,0.424,2.335c0,1.357-0.029,1.536-0.359,2.206
		c-0.553,1.126-1.369,1.948-2.486,2.5c-0.867,0.428-1.086,0.481-2.137,0.518C348.649,11.536,348.2,11.489,347.716,11.316z"/>
</g>
<g id="layer1_11_" inkscape:label="Layer 1" inkscape:groupmode="layer">
	<path id="path2558_11_" fill="#010101" d="M375.243,64.106c-1.012-0.332-1.813-1.078-2.041-1.902
		c-0.092-0.329-0.135-7.049-0.135-20.896l-0.002-20.411h-0.512h-0.514v7.705c0,7.554-0.004,7.714-0.264,8.171
		c-0.338,0.592-0.715,0.869-1.455,1.066c-1.094,0.293-2.289-0.266-2.719-1.27c-0.275-0.646-0.258-17.868,0.02-18.936
		c0.627-2.406,2.656-4.378,5.025-4.88c1.246-0.264,12.777-0.267,14.02-0.004c1.268,0.269,2.355,0.876,3.318,1.852
		c0.99,1.004,1.451,1.818,1.797,3.166c0.24,0.939,0.254,1.443,0.254,9.627c0,7.481-0.027,8.698-0.197,9.107
		c-0.266,0.635-0.539,0.922-1.15,1.201c-1.012,0.465-2.297,0.166-2.896-0.673l-0.307-0.432l-0.035-7.851l-0.035-7.851h-0.51h-0.51
		v20.512c0,22.484,0.051,20.991-0.744,21.829c-0.627,0.661-1.268,0.911-2.332,0.911s-1.705-0.25-2.332-0.911
		c-0.779-0.821-0.744-0.186-0.744-13.37V37.815h-0.512h-0.514v12.052c0,9.822-0.031,12.129-0.172,12.465
		c-0.26,0.616-0.82,1.224-1.41,1.524C377.067,64.146,375.776,64.282,375.243,64.106z M378.126,11.316
		c-1.549-0.554-2.506-1.407-3.184-2.837c-0.375-0.792-0.402-0.944-0.402-2.261c0-1.333,0.023-1.46,0.414-2.254
		c1.953-3.969,7.594-3.979,9.545-0.017c0.404,0.82,0.422,0.924,0.422,2.335c0,1.357-0.027,1.536-0.357,2.206
		c-0.553,1.126-1.371,1.948-2.486,2.5c-0.867,0.428-1.086,0.481-2.137,0.518C379.06,11.536,378.61,11.489,378.126,11.316z"/>
</g>
<g id="layer1_10_" inkscape:label="Layer 1" inkscape:groupmode="layer">
	<path id="path2558_10_" fill="#010101" d="M405.325,64.106c-1.012-0.332-1.813-1.078-2.041-1.902
		c-0.092-0.329-0.135-7.049-0.135-20.896l-0.002-20.411h-0.512h-0.514v7.705c0,7.554-0.004,7.714-0.264,8.171
		c-0.338,0.592-0.715,0.869-1.455,1.066c-1.094,0.293-2.289-0.266-2.719-1.27c-0.275-0.646-0.258-17.868,0.02-18.936
		c0.627-2.406,2.656-4.378,5.025-4.88c1.246-0.264,12.777-0.267,14.021-0.004c1.266,0.269,2.354,0.876,3.316,1.852
		c0.99,1.004,1.453,1.818,1.797,3.166c0.24,0.939,0.254,1.443,0.254,9.627c0,7.481-0.027,8.698-0.197,9.107
		c-0.266,0.635-0.539,0.922-1.148,1.201c-1.012,0.465-2.299,0.166-2.896-0.673l-0.309-0.432l-0.035-7.851l-0.035-7.851h-0.51h-0.51
		v20.512c0,22.484,0.051,20.991-0.742,21.829c-0.629,0.661-1.27,0.911-2.334,0.911s-1.703-0.25-2.332-0.911
		c-0.779-0.821-0.744-0.186-0.744-13.37V37.815h-0.512H409.3v12.052c0,9.822-0.031,12.129-0.172,12.465
		c-0.26,0.616-0.82,1.224-1.41,1.524C407.149,64.146,405.858,64.282,405.325,64.106z M408.208,11.316
		c-1.549-0.554-2.506-1.407-3.184-2.837c-0.375-0.792-0.402-0.944-0.402-2.261c0-1.333,0.023-1.46,0.414-2.254
		c1.953-3.969,7.596-3.979,9.545-0.017c0.404,0.82,0.424,0.924,0.424,2.335c0,1.357-0.029,1.536-0.359,2.206
		c-0.553,1.126-1.369,1.948-2.486,2.5c-0.867,0.428-1.086,0.481-2.137,0.518C409.142,11.536,408.692,11.489,408.208,11.316z"/>
</g>
<g id="layer1_9_" inkscape:label="Layer 1" inkscape:groupmode="layer">
	<path id="path2558_9_" fill="#010101" d="M436.458,64.106c-1.012-0.332-1.814-1.078-2.043-1.902
		c-0.09-0.329-0.135-7.049-0.135-20.896V20.896h-0.514h-0.512v7.705c0,7.554-0.006,7.714-0.266,8.171
		c-0.336,0.592-0.715,0.869-1.453,1.066c-1.094,0.293-2.289-0.266-2.719-1.27c-0.277-0.646-0.26-17.868,0.02-18.936
		c0.627-2.406,2.656-4.378,5.023-4.88c1.248-0.264,12.777-0.267,14.021-0.004c1.266,0.269,2.354,0.876,3.316,1.852
		c0.99,1.004,1.453,1.818,1.797,3.166c0.24,0.939,0.254,1.443,0.254,9.627c0,7.481-0.025,8.698-0.197,9.107
		c-0.266,0.635-0.539,0.922-1.148,1.201c-1.012,0.465-2.299,0.166-2.896-0.673l-0.309-0.432l-0.033-7.851l-0.035-7.851h-0.51h-0.51
		v20.512c0,22.484,0.051,20.991-0.744,21.829c-0.629,0.661-1.268,0.911-2.332,0.911s-1.705-0.25-2.334-0.911
		c-0.777-0.821-0.742-0.186-0.742-13.37V37.815h-0.514h-0.512v12.052c0,9.822-0.033,12.129-0.174,12.465
		c-0.258,0.616-0.82,1.224-1.41,1.524C438.28,64.146,436.991,64.282,436.458,64.106z M439.341,11.316
		c-1.549-0.554-2.508-1.407-3.186-2.837c-0.375-0.792-0.402-0.944-0.402-2.261c0-1.333,0.023-1.46,0.416-2.254
		c1.953-3.969,7.594-3.979,9.545-0.017c0.402,0.82,0.422,0.924,0.422,2.335c0,1.357-0.029,1.536-0.357,2.206
		c-0.555,1.126-1.371,1.948-2.486,2.5c-0.867,0.428-1.088,0.481-2.137,0.518C440.272,11.536,439.825,11.489,439.341,11.316z"/>
</g>
<g id="layer1_8_" inkscape:label="Layer 1" inkscape:groupmode="layer">
	<path id="path2558_8_" fill="#010101" d="M466.54,64.106c-1.012-0.332-1.814-1.078-2.043-1.902
		c-0.092-0.329-0.135-7.049-0.135-20.896l-0.002-20.411h-0.512h-0.512v7.705c0,7.554-0.006,7.714-0.266,8.171
		c-0.338,0.592-0.715,0.869-1.455,1.066c-1.094,0.293-2.289-0.266-2.719-1.27c-0.275-0.646-0.258-17.868,0.021-18.936
		c0.625-2.406,2.656-4.378,5.023-4.88c1.246-0.264,12.777-0.267,14.021-0.004c1.266,0.269,2.354,0.876,3.316,1.852
		c0.99,1.004,1.453,1.818,1.797,3.166c0.24,0.939,0.254,1.443,0.254,9.627c0,7.481-0.027,8.698-0.197,9.107
		c-0.266,0.635-0.539,0.922-1.148,1.201c-1.012,0.465-2.299,0.166-2.896-0.673l-0.309-0.432l-0.035-7.851l-0.035-7.851h-0.51h-0.51
		v20.512c0,22.484,0.051,20.991-0.742,21.829c-0.629,0.661-1.27,0.911-2.334,0.911s-1.703-0.25-2.332-0.911
		c-0.779-0.821-0.744-0.186-0.744-13.37V37.815h-0.512h-0.514v12.052c0,9.822-0.031,12.129-0.172,12.465
		c-0.258,0.616-0.82,1.224-1.41,1.524C468.362,64.146,467.073,64.282,466.54,64.106z M469.423,11.316
		c-1.551-0.554-2.508-1.407-3.186-2.837c-0.375-0.792-0.402-0.944-0.402-2.261c0-1.333,0.023-1.46,0.414-2.254
		c1.955-3.969,7.596-3.979,9.545-0.017c0.404,0.82,0.424,0.924,0.424,2.335c0,1.357-0.029,1.536-0.359,2.206
		c-0.553,1.126-1.369,1.948-2.486,2.5c-0.865,0.428-1.086,0.481-2.137,0.518C470.354,11.536,469.905,11.489,469.423,11.316z"/>
</g>
<g id="layer1_31_" inkscape:label="Layer 1" inkscape:groupmode="layer">
	<path id="path2558_31_" fill="#010101" d="M9.174,130.505c-1.012-0.332-1.813-1.078-2.042-1.902
		c-0.091-0.329-0.135-7.049-0.135-20.896L6.996,87.295H6.484H5.971V95c0,7.554-0.005,7.714-0.265,8.171
		c-0.337,0.592-0.714,0.869-1.454,1.066c-1.094,0.293-2.289-0.266-2.719-1.27c-0.276-0.646-0.258-17.868,0.02-18.936
		c0.626-2.406,2.656-4.378,5.024-4.88c1.247-0.264,12.777-0.267,14.021-0.004c1.267,0.269,2.354,0.876,3.317,1.852
		c0.99,1.004,1.453,1.818,1.797,3.166c0.24,0.939,0.253,1.443,0.253,9.627c0,7.481-0.026,8.698-0.197,9.107
		c-0.266,0.635-0.539,0.922-1.149,1.201c-1.012,0.465-2.298,0.166-2.896-0.673l-0.308-0.432l-0.035-7.851l-0.035-7.851h-0.51h-0.51
		v20.512c0,22.484,0.051,20.991-0.744,21.829c-0.628,0.661-1.268,0.911-2.333,0.911s-1.705-0.25-2.333-0.911
		c-0.779-0.821-0.744-0.186-0.744-13.37v-12.052h-0.513h-0.513v12.052c0,9.822-0.032,12.129-0.173,12.465
		c-0.258,0.616-0.82,1.224-1.41,1.524C10.998,130.545,9.708,130.681,9.174,130.505z M12.057,77.715
		c-1.549-0.554-2.507-1.407-3.185-2.837c-0.375-0.792-0.402-0.944-0.402-2.261c0-1.333,0.023-1.46,0.415-2.254
		c1.954-3.969,7.594-3.979,9.545-0.017c0.404,0.82,0.422,0.924,0.422,2.335c0,1.357-0.029,1.536-0.358,2.206
		c-0.553,1.126-1.371,1.948-2.486,2.5c-0.867,0.428-1.086,0.481-2.137,0.518C12.99,77.935,12.541,77.888,12.057,77.715z"/>
</g>
<g id="layer1_30_" inkscape:label="Layer 1" inkscape:groupmode="layer">
	<path id="path2558_30_" fill="#010101" d="M39.256,130.505c-1.012-0.332-1.813-1.078-2.042-1.902
		c-0.091-0.329-0.135-7.049-0.135-20.896l-0.001-20.411h-0.512h-0.513V95c0,7.554-0.005,7.714-0.265,8.171
		c-0.337,0.592-0.714,0.869-1.454,1.066c-1.094,0.293-2.289-0.266-2.719-1.27c-0.276-0.646-0.258-17.868,0.02-18.936
		c0.626-2.406,2.656-4.378,5.024-4.88c1.247-0.264,12.777-0.267,14.021-0.004c1.266,0.269,2.354,0.876,3.316,1.852
		c0.99,1.004,1.453,1.818,1.797,3.166c0.24,0.939,0.254,1.443,0.254,9.627c0,7.481-0.026,8.698-0.197,9.107
		c-0.266,0.635-0.539,0.922-1.148,1.201c-1.012,0.465-2.299,0.166-2.896-0.673l-0.309-0.432l-0.034-7.851l-0.035-7.851h-0.51h-0.51
		v20.512c0,22.484,0.051,20.991-0.743,21.829c-0.629,0.661-1.269,0.911-2.333,0.911s-1.704-0.25-2.333-0.911
		c-0.779-0.821-0.744-0.186-0.744-13.37v-12.052h-0.513H43.23v12.052c0,9.822-0.032,12.129-0.173,12.465
		c-0.258,0.616-0.82,1.224-1.41,1.524C41.079,130.545,39.789,130.681,39.256,130.505z M42.139,77.715
		c-1.549-0.554-2.507-1.407-3.185-2.837c-0.375-0.792-0.402-0.944-0.402-2.261c0-1.333,0.023-1.46,0.415-2.254
		c1.954-3.969,7.595-3.979,9.545-0.017c0.403,0.82,0.423,0.924,0.423,2.335c0,1.357-0.029,1.536-0.358,2.206
		c-0.554,1.126-1.37,1.948-2.486,2.5c-0.867,0.428-1.086,0.481-2.137,0.518C43.071,77.935,42.623,77.888,42.139,77.715z"/>
</g>
<g id="layer1_29_" inkscape:label="Layer 1" inkscape:groupmode="layer">
	<path id="path2558_29_" fill="#010101" d="M70.388,130.505c-1.012-0.332-1.813-1.078-2.042-1.902
		c-0.091-0.329-0.135-7.049-0.135-20.896l-0.001-20.411h-0.512h-0.513V95c0,7.554-0.005,7.714-0.265,8.171
		c-0.337,0.592-0.714,0.869-1.454,1.066c-1.094,0.293-2.289-0.266-2.719-1.27c-0.276-0.646-0.258-17.868,0.02-18.936
		c0.626-2.406,2.656-4.378,5.024-4.88c1.247-0.264,12.777-0.267,14.021-0.004c1.267,0.269,2.354,0.876,3.317,1.852
		c0.99,1.004,1.453,1.818,1.797,3.166c0.24,0.939,0.253,1.443,0.253,9.627c0,7.481-0.026,8.698-0.197,9.107
		c-0.266,0.635-0.539,0.922-1.149,1.201c-1.012,0.465-2.298,0.166-2.896-0.673l-0.308-0.432l-0.035-7.851l-0.035-7.851h-0.51h-0.51
		v20.512c0,22.484,0.051,20.991-0.744,21.829c-0.628,0.661-1.268,0.911-2.333,0.911s-1.705-0.25-2.333-0.911
		c-0.779-0.821-0.744-0.186-0.744-13.37v-12.052h-0.513h-0.513v12.052c0,9.822-0.032,12.129-0.173,12.465
		c-0.258,0.616-0.82,1.224-1.41,1.524C72.211,130.545,70.921,130.681,70.388,130.505z M73.271,77.715
		c-1.549-0.554-2.507-1.407-3.185-2.837c-0.375-0.792-0.402-0.944-0.402-2.261c0-1.333,0.023-1.46,0.415-2.254
		c1.954-3.969,7.594-3.979,9.545-0.017c0.404,0.82,0.422,0.924,0.422,2.335c0,1.357-0.029,1.536-0.358,2.206
		c-0.553,1.126-1.371,1.948-2.486,2.5c-0.867,0.428-1.086,0.481-2.137,0.518C74.203,77.935,73.754,77.888,73.271,77.715z"/>
</g>
<g id="layer1_28_" inkscape:label="Layer 1" inkscape:groupmode="layer">
	<path id="path2558_28_" fill="#010101" d="M100.469,130.505c-1.012-0.332-1.813-1.078-2.042-1.902
		c-0.091-0.329-0.135-7.049-0.135-20.896l-0.001-20.411h-0.512h-0.513V95c0,7.554-0.005,7.714-0.265,8.171
		c-0.337,0.592-0.714,0.869-1.454,1.066c-1.094,0.293-2.289-0.266-2.719-1.27c-0.276-0.646-0.258-17.868,0.02-18.936
		c0.626-2.406,2.656-4.378,5.024-4.88c1.247-0.264,12.777-0.267,14.021-0.004c1.266,0.269,2.354,0.876,3.316,1.852
		c0.99,1.004,1.453,1.818,1.797,3.166c0.24,0.939,0.254,1.443,0.254,9.627c0,7.481-0.026,8.698-0.197,9.107
		c-0.266,0.635-0.539,0.922-1.148,1.201c-1.012,0.465-2.299,0.166-2.896-0.673l-0.309-0.432l-0.034-7.851l-0.035-7.851h-0.51h-0.51
		v20.512c0,22.484,0.051,20.991-0.743,21.829c-0.629,0.661-1.269,0.911-2.333,0.911s-1.704-0.25-2.333-0.911
		c-0.779-0.821-0.744-0.186-0.744-13.37v-12.052h-0.513h-0.513v12.052c0,9.822-0.032,12.129-0.173,12.465
		c-0.258,0.616-0.82,1.224-1.41,1.524C102.292,130.545,101.002,130.681,100.469,130.505z M103.352,77.715
		c-1.549-0.554-2.507-1.407-3.185-2.837c-0.375-0.792-0.402-0.944-0.402-2.261c0-1.333,0.023-1.46,0.415-2.254
		c1.954-3.969,7.595-3.979,9.545-0.017c0.403,0.82,0.423,0.924,0.423,2.335c0,1.357-0.029,1.536-0.358,2.206
		c-0.554,1.126-1.37,1.948-2.486,2.5c-0.867,0.428-1.086,0.481-2.137,0.518C104.285,77.935,103.836,77.888,103.352,77.715z"/>
</g>
<g id="layer1_27_" inkscape:label="Layer 1" inkscape:groupmode="layer">
	<path id="path2558_27_" fill="#010101" d="M130.879,130.505c-1.012-0.332-1.813-1.078-2.042-1.902
		c-0.091-0.329-0.135-7.049-0.135-20.896l-0.001-20.411h-0.512h-0.513V95c0,7.554-0.005,7.714-0.265,8.171
		c-0.337,0.592-0.714,0.869-1.454,1.066c-1.094,0.293-2.289-0.266-2.719-1.27c-0.276-0.646-0.258-17.868,0.02-18.936
		c0.626-2.406,2.656-4.378,5.024-4.88c1.247-0.264,12.777-0.267,14.021-0.004c1.267,0.269,2.354,0.876,3.317,1.852
		c0.99,1.004,1.453,1.818,1.797,3.166c0.24,0.939,0.253,1.443,0.253,9.627c0,7.481-0.026,8.698-0.197,9.107
		c-0.266,0.635-0.539,0.922-1.149,1.201c-1.012,0.465-2.298,0.166-2.896-0.673l-0.308-0.432l-0.035-7.851l-0.035-7.851h-0.51h-0.51
		v20.512c0,22.484,0.051,20.991-0.744,21.829c-0.628,0.661-1.268,0.911-2.333,0.911s-1.705-0.25-2.333-0.911
		c-0.779-0.821-0.744-0.186-0.744-13.37v-12.052h-0.513h-0.513v12.052c0,9.822-0.032,12.129-0.173,12.465
		c-0.258,0.616-0.82,1.224-1.41,1.524C132.703,130.545,131.413,130.681,130.879,130.505z M133.762,77.715
		c-1.549-0.554-2.507-1.407-3.185-2.837c-0.375-0.792-0.402-0.944-0.402-2.261c0-1.333,0.023-1.46,0.415-2.254
		c1.954-3.969,7.594-3.979,9.545-0.017c0.404,0.82,0.422,0.924,0.422,2.335c0,1.357-0.029,1.536-0.358,2.206
		c-0.553,1.126-1.371,1.948-2.486,2.5c-0.867,0.428-1.086,0.481-2.137,0.518C134.695,77.935,134.246,77.888,133.762,77.715z"/>
</g>
<g id="layer1_26_" inkscape:label="Layer 1" inkscape:groupmode="layer">
	<path id="path2558_26_" fill="#010101" d="M160.961,130.505c-1.012-0.332-1.813-1.078-2.042-1.902
		c-0.091-0.329-0.135-7.049-0.135-20.896l-0.001-20.411h-0.512h-0.513V95c0,7.554-0.005,7.714-0.265,8.171
		c-0.337,0.592-0.714,0.869-1.454,1.066c-1.094,0.293-2.289-0.266-2.719-1.27c-0.276-0.646-0.258-17.868,0.02-18.936
		c0.626-2.406,2.656-4.378,5.024-4.88c1.247-0.264,12.777-0.267,14.021-0.004c1.266,0.269,2.354,0.876,3.316,1.852
		c0.99,1.004,1.453,1.818,1.797,3.166c0.24,0.939,0.254,1.443,0.254,9.627c0,7.481-0.026,8.698-0.197,9.107
		c-0.266,0.635-0.539,0.922-1.148,1.201c-1.012,0.465-2.299,0.166-2.896-0.673l-0.309-0.432l-0.034-7.851l-0.035-7.851h-0.51h-0.51
		v20.512c0,22.484,0.051,20.991-0.743,21.829c-0.629,0.661-1.269,0.911-2.333,0.911s-1.704-0.25-2.333-0.911
		c-0.779-0.821-0.744-0.186-0.744-13.37v-12.052h-0.513h-0.513v12.052c0,9.822-0.032,12.129-0.173,12.465
		c-0.258,0.616-0.82,1.224-1.41,1.524C162.784,130.545,161.494,130.681,160.961,130.505z M163.844,77.715
		c-1.549-0.554-2.507-1.407-3.185-2.837c-0.375-0.792-0.402-0.944-0.402-2.261c0-1.333,0.023-1.46,0.415-2.254
		c1.954-3.969,7.595-3.979,9.545-0.017c0.403,0.82,0.423,0.924,0.423,2.335c0,1.357-0.029,1.536-0.358,2.206
		c-0.554,1.126-1.37,1.948-2.486,2.5c-0.867,0.428-1.086,0.481-2.137,0.518C164.776,77.935,164.328,77.888,163.844,77.715z"/>
</g>
<g id="layer1_25_" inkscape:label="Layer 1" inkscape:groupmode="layer">
	<path id="path2558_25_" fill="#010101" d="M192.093,130.505c-1.012-0.332-1.813-1.078-2.042-1.902
		c-0.091-0.329-0.135-7.049-0.135-20.896l-0.001-20.411h-0.512h-0.513V95c0,7.554-0.005,7.714-0.265,8.171
		c-0.337,0.592-0.714,0.869-1.454,1.066c-1.094,0.293-2.289-0.266-2.719-1.27c-0.276-0.646-0.258-17.868,0.02-18.936
		c0.626-2.406,2.656-4.378,5.024-4.88c1.247-0.264,12.777-0.267,14.021-0.004c1.267,0.269,2.354,0.876,3.317,1.852
		c0.99,1.004,1.453,1.818,1.797,3.166c0.24,0.939,0.253,1.443,0.253,9.627c0,7.481-0.026,8.698-0.197,9.107
		c-0.266,0.635-0.539,0.922-1.149,1.201c-1.012,0.465-2.298,0.166-2.896-0.673l-0.308-0.432l-0.035-7.851l-0.035-7.851h-0.51h-0.51
		v20.512c0,22.484,0.051,20.991-0.744,21.829c-0.628,0.661-1.268,0.911-2.333,0.911s-1.705-0.25-2.333-0.911
		c-0.779-0.821-0.744-0.186-0.744-13.37v-12.052h-0.513h-0.513v12.052c0,9.822-0.032,12.129-0.173,12.465
		c-0.258,0.616-0.82,1.224-1.41,1.524C193.916,130.545,192.626,130.681,192.093,130.505z M194.976,77.715
		c-1.549-0.554-2.507-1.407-3.185-2.837c-0.375-0.792-0.402-0.944-0.402-2.261c0-1.333,0.023-1.46,0.415-2.254
		c1.954-3.969,7.594-3.979,9.545-0.017c0.404,0.82,0.422,0.924,0.422,2.335c0,1.357-0.029,1.536-0.358,2.206
		c-0.553,1.126-1.371,1.948-2.486,2.5c-0.867,0.428-1.086,0.481-2.137,0.518C195.908,77.935,195.459,77.888,194.976,77.715z"/>
</g>
<g id="layer1_24_" inkscape:label="Layer 1" inkscape:groupmode="layer">
	<path id="path2558_24_" fill="#010101" d="M222.175,130.505c-1.012-0.332-1.814-1.078-2.043-1.902
		c-0.091-0.329-0.135-7.049-0.135-20.896l-0.001-20.411h-0.513h-0.512V95c0,7.554-0.006,7.714-0.266,8.171
		c-0.337,0.592-0.715,0.869-1.454,1.066c-1.094,0.293-2.289-0.266-2.719-1.27c-0.276-0.646-0.259-17.868,0.021-18.936
		c0.626-2.406,2.656-4.378,5.023-4.88c1.247-0.264,12.777-0.267,14.021-0.004c1.266,0.269,2.354,0.876,3.316,1.852
		c0.99,1.004,1.453,1.818,1.797,3.166c0.24,0.939,0.254,1.443,0.254,9.627c0,7.481-0.026,8.698-0.197,9.107
		c-0.266,0.635-0.539,0.922-1.148,1.201c-1.012,0.465-2.299,0.166-2.896-0.673l-0.309-0.432l-0.034-7.851l-0.035-7.851h-0.51h-0.51
		v20.512c0,22.484,0.051,20.991-0.743,21.829c-0.629,0.661-1.269,0.911-2.333,0.911s-1.704-0.25-2.333-0.911
		c-0.778-0.821-0.743-0.186-0.743-13.37v-12.052h-0.513h-0.513v12.052c0,9.822-0.032,12.129-0.173,12.465
		c-0.258,0.616-0.82,1.224-1.41,1.524C223.997,130.545,222.708,130.681,222.175,130.505z M225.058,77.715
		c-1.55-0.554-2.508-1.407-3.186-2.837c-0.375-0.792-0.402-0.944-0.402-2.261c0-1.333,0.023-1.46,0.415-2.254
		c1.954-3.969,7.595-3.979,9.545-0.017c0.403,0.82,0.423,0.924,0.423,2.335c0,1.357-0.029,1.536-0.358,2.206
		c-0.554,1.126-1.37,1.948-2.486,2.5c-0.866,0.428-1.087,0.481-2.137,0.518C225.989,77.935,225.541,77.888,225.058,77.715z"/>
</g>
<g id="layer1_23_" inkscape:label="Layer 1" inkscape:groupmode="layer">
	<path id="path2558_23_" fill="#010101" d="M254.874,131.485c-1.012-0.332-1.813-1.078-2.042-1.902
		c-0.091-0.328-0.135-7.049-0.135-20.896l-0.001-20.411h-0.512h-0.513v7.705c0,7.553-0.005,7.713-0.265,8.17
		c-0.337,0.592-0.714,0.869-1.454,1.066c-1.094,0.293-2.289-0.266-2.719-1.27c-0.276-0.645-0.258-17.868,0.02-18.936
		c0.626-2.406,2.656-4.378,5.024-4.88c1.247-0.264,12.777-0.267,14.021-0.004c1.267,0.269,2.354,0.876,3.317,1.852
		c0.99,1.004,1.453,1.818,1.797,3.166c0.24,0.939,0.254,1.443,0.254,9.627c0,7.481-0.026,8.698-0.197,9.106
		c-0.266,0.635-0.539,0.922-1.149,1.201c-1.012,0.465-2.298,0.166-2.896-0.672l-0.308-0.432l-0.035-7.851l-0.035-7.851h-0.51h-0.51
		v20.512c0,22.484,0.051,20.99-0.744,21.828c-0.628,0.662-1.268,0.912-2.333,0.912s-1.705-0.25-2.333-0.912
		c-0.779-0.82-0.744-0.186-0.744-13.369v-12.053h-0.513h-0.513v12.053c0,9.822-0.032,12.129-0.173,12.465
		c-0.258,0.615-0.82,1.223-1.41,1.523C256.697,131.526,255.407,131.661,254.874,131.485z M257.756,78.696
		c-1.549-0.554-2.507-1.407-3.185-2.837c-0.375-0.792-0.402-0.944-0.402-2.261c0-1.333,0.023-1.46,0.415-2.254
		c1.954-3.969,7.594-3.979,9.545-0.017c0.404,0.82,0.422,0.924,0.422,2.335c0,1.357-0.029,1.536-0.358,2.206
		c-0.553,1.126-1.371,1.948-2.486,2.5c-0.867,0.428-1.086,0.481-2.137,0.518C258.689,78.916,258.24,78.869,257.756,78.696z"/>
</g>
<g id="layer1_22_" inkscape:label="Layer 1" inkscape:groupmode="layer">
	<path id="path2558_22_" fill="#010101" d="M284.955,131.485c-1.012-0.332-1.813-1.078-2.042-1.902
		c-0.092-0.328-0.135-7.049-0.135-20.896l-0.002-20.411h-0.512h-0.513v7.705c0,7.553-0.005,7.713-0.265,8.17
		c-0.338,0.592-0.715,0.869-1.455,1.066c-1.094,0.293-2.289-0.266-2.719-1.27c-0.275-0.645-0.258-17.868,0.021-18.936
		c0.626-2.406,2.656-4.378,5.024-4.88c1.246-0.264,12.777-0.267,14.021-0.004c1.266,0.269,2.354,0.876,3.316,1.852
		c0.99,1.004,1.453,1.818,1.797,3.166c0.24,0.939,0.254,1.443,0.254,9.627c0,7.481-0.027,8.698-0.197,9.106
		c-0.266,0.635-0.539,0.922-1.148,1.201c-1.012,0.465-2.299,0.166-2.896-0.672l-0.309-0.432l-0.035-7.851l-0.035-7.851h-0.51h-0.51
		v20.512c0,22.484,0.051,20.99-0.742,21.828c-0.629,0.662-1.27,0.912-2.334,0.912s-1.703-0.25-2.332-0.912
		c-0.779-0.82-0.744-0.186-0.744-13.369v-12.053h-0.512h-0.514v12.053c0,9.822-0.031,12.129-0.172,12.465
		c-0.259,0.615-0.82,1.223-1.41,1.523C286.778,131.526,285.488,131.661,284.955,131.485z M287.838,78.696
		c-1.55-0.554-2.507-1.407-3.185-2.837c-0.375-0.792-0.402-0.944-0.402-2.261c0-1.333,0.023-1.46,0.414-2.254
		c1.954-3.969,7.596-3.979,9.545-0.017c0.404,0.82,0.424,0.924,0.424,2.335c0,1.357-0.029,1.536-0.359,2.206
		c-0.553,1.126-1.369,1.948-2.486,2.5c-0.866,0.428-1.086,0.481-2.137,0.518C288.771,78.916,288.321,78.869,287.838,78.696z"/>
</g>
<g id="layer1_21_" inkscape:label="Layer 1" inkscape:groupmode="layer">
	<path id="path2558_21_" fill="#010101" d="M316.088,131.485c-1.012-0.332-1.814-1.078-2.043-1.902
		c-0.092-0.328-0.135-7.049-0.135-20.896l-0.002-20.411h-0.512h-0.512v7.705c0,7.553-0.006,7.713-0.266,8.17
		c-0.338,0.592-0.715,0.869-1.455,1.066c-1.094,0.293-2.289-0.266-2.719-1.27c-0.275-0.645-0.258-17.868,0.021-18.936
		c0.625-2.406,2.656-4.378,5.023-4.88c1.246-0.264,12.777-0.267,14.021-0.004c1.266,0.269,2.354,0.876,3.316,1.852
		c0.99,1.004,1.453,1.818,1.797,3.166c0.24,0.939,0.254,1.443,0.254,9.627c0,7.481-0.027,8.698-0.197,9.106
		c-0.266,0.635-0.539,0.922-1.148,1.201c-1.012,0.465-2.299,0.166-2.896-0.672l-0.309-0.432l-0.035-7.851l-0.035-7.851h-0.51h-0.51
		v20.512c0,22.484,0.051,20.99-0.742,21.828c-0.629,0.662-1.27,0.912-2.334,0.912s-1.703-0.25-2.332-0.912
		c-0.779-0.82-0.744-0.186-0.744-13.369v-12.053h-0.512h-0.514v12.053c0,9.822-0.031,12.129-0.172,12.465
		c-0.258,0.615-0.82,1.223-1.41,1.523C317.91,131.526,316.621,131.661,316.088,131.485z M318.971,78.696
		c-1.551-0.554-2.508-1.407-3.186-2.837c-0.375-0.792-0.402-0.944-0.402-2.261c0-1.333,0.023-1.46,0.414-2.254
		c1.955-3.969,7.596-3.979,9.545-0.017c0.404,0.82,0.424,0.924,0.424,2.335c0,1.357-0.029,1.536-0.359,2.206
		c-0.553,1.126-1.369,1.948-2.486,2.5c-0.865,0.428-1.086,0.481-2.137,0.518C319.902,78.916,319.453,78.869,318.971,78.696z"/>
</g>
<g id="layer1_20_" inkscape:label="Layer 1" inkscape:groupmode="layer">
	<path id="path2558_20_" fill="#010101" d="M346.168,131.485c-1.012-0.332-1.813-1.078-2.041-1.902
		c-0.092-0.328-0.135-7.049-0.135-20.896l-0.002-20.411h-0.512h-0.514v7.705c0,7.553-0.004,7.713-0.264,8.17
		c-0.338,0.592-0.715,0.869-1.455,1.066c-1.094,0.293-2.289-0.266-2.719-1.27c-0.275-0.645-0.258-17.868,0.02-18.936
		c0.627-2.406,2.656-4.378,5.025-4.88c1.246-0.264,12.777-0.267,14.021-0.004c1.266,0.269,2.354,0.876,3.316,1.852
		c0.99,1.004,1.453,1.818,1.797,3.166c0.24,0.939,0.254,1.443,0.254,9.627c0,7.481-0.027,8.698-0.197,9.106
		c-0.266,0.635-0.539,0.922-1.148,1.201c-1.012,0.465-2.299,0.166-2.896-0.672l-0.309-0.432l-0.035-7.851l-0.035-7.851h-0.51h-0.51
		v20.512c0,22.484,0.051,20.99-0.742,21.828c-0.629,0.662-1.27,0.912-2.334,0.912s-1.703-0.25-2.332-0.912
		c-0.779-0.82-0.744-0.186-0.744-13.369v-12.053h-0.512h-0.514v12.053c0,9.822-0.031,12.129-0.172,12.465
		c-0.26,0.615-0.82,1.223-1.41,1.523C347.992,131.526,346.701,131.661,346.168,131.485z M349.051,78.696
		c-1.549-0.554-2.506-1.407-3.184-2.837c-0.375-0.792-0.402-0.944-0.402-2.261c0-1.333,0.023-1.46,0.414-2.254
		c1.953-3.969,7.596-3.979,9.545-0.017c0.404,0.82,0.424,0.924,0.424,2.335c0,1.357-0.029,1.536-0.359,2.206
		c-0.553,1.126-1.369,1.948-2.486,2.5c-0.867,0.428-1.086,0.481-2.137,0.518C349.984,78.916,349.535,78.869,349.051,78.696z"/>
</g>
<g id="layer1_19_" inkscape:label="Layer 1" inkscape:groupmode="layer">
	<path id="path2558_19_" fill="#010101" d="M376.578,131.485c-1.012-0.332-1.813-1.078-2.041-1.902
		c-0.092-0.328-0.135-7.049-0.135-20.896L374.4,88.276h-0.512h-0.514v7.705c0,7.553-0.004,7.713-0.264,8.17
		c-0.338,0.592-0.715,0.869-1.455,1.066c-1.094,0.293-2.289-0.266-2.719-1.27c-0.275-0.645-0.258-17.868,0.02-18.936
		c0.627-2.406,2.656-4.378,5.025-4.88c1.246-0.264,12.777-0.267,14.02-0.004c1.268,0.269,2.355,0.876,3.318,1.852
		c0.99,1.004,1.451,1.818,1.797,3.166c0.24,0.939,0.254,1.443,0.254,9.627c0,7.481-0.027,8.698-0.197,9.106
		c-0.266,0.635-0.539,0.922-1.15,1.201c-1.012,0.465-2.297,0.166-2.896-0.672l-0.307-0.432l-0.035-7.851l-0.035-7.851h-0.51h-0.51
		v20.512c0,22.484,0.051,20.99-0.744,21.828c-0.627,0.662-1.268,0.912-2.332,0.912s-1.705-0.25-2.332-0.912
		c-0.779-0.82-0.744-0.186-0.744-13.369v-12.053h-0.512h-0.514v12.053c0,9.822-0.031,12.129-0.172,12.465
		c-0.26,0.615-0.82,1.223-1.41,1.523C378.402,131.526,377.111,131.661,376.578,131.485z M379.461,78.696
		c-1.549-0.554-2.506-1.407-3.184-2.837c-0.375-0.792-0.402-0.944-0.402-2.261c0-1.333,0.023-1.46,0.414-2.254
		c1.953-3.969,7.594-3.979,9.545-0.017c0.404,0.82,0.422,0.924,0.422,2.335c0,1.357-0.027,1.536-0.357,2.206
		c-0.553,1.126-1.371,1.948-2.486,2.5c-0.867,0.428-1.086,0.481-2.137,0.518C380.395,78.916,379.945,78.869,379.461,78.696z"/>
</g>
<g id="layer1_18_" inkscape:label="Layer 1" inkscape:groupmode="layer">
	<path id="path2558_18_" fill="#010101" d="M406.66,131.485c-1.012-0.332-1.813-1.078-2.041-1.902
		c-0.092-0.328-0.135-7.049-0.135-20.896l-0.002-20.411h-0.512h-0.514v7.705c0,7.553-0.004,7.713-0.264,8.17
		c-0.338,0.592-0.715,0.869-1.455,1.066c-1.094,0.293-2.289-0.266-2.719-1.27c-0.275-0.645-0.258-17.868,0.02-18.936
		c0.627-2.406,2.656-4.378,5.025-4.88c1.246-0.264,12.777-0.267,14.021-0.004c1.266,0.269,2.354,0.876,3.316,1.852
		c0.99,1.004,1.453,1.818,1.797,3.166c0.24,0.939,0.254,1.443,0.254,9.627c0,7.481-0.027,8.698-0.197,9.106
		c-0.266,0.635-0.539,0.922-1.148,1.201c-1.012,0.465-2.299,0.166-2.896-0.672l-0.309-0.432l-0.035-7.851l-0.035-7.851h-0.51h-0.51
		v20.512c0,22.484,0.051,20.99-0.742,21.828c-0.629,0.662-1.27,0.912-2.334,0.912s-1.703-0.25-2.332-0.912
		c-0.779-0.82-0.744-0.186-0.744-13.369v-12.053h-0.512h-0.514v12.053c0,9.822-0.031,12.129-0.172,12.465
		c-0.26,0.615-0.82,1.223-1.41,1.523C408.484,131.526,407.193,131.661,406.66,131.485z M409.543,78.696
		c-1.549-0.554-2.506-1.407-3.184-2.837c-0.375-0.792-0.402-0.944-0.402-2.261c0-1.333,0.023-1.46,0.414-2.254
		c1.953-3.969,7.596-3.979,9.545-0.017c0.404,0.82,0.424,0.924,0.424,2.335c0,1.357-0.029,1.536-0.359,2.206
		c-0.553,1.126-1.369,1.948-2.486,2.5c-0.867,0.428-1.086,0.481-2.137,0.518C410.477,78.916,410.027,78.869,409.543,78.696z"/>
</g>
<g id="layer1_17_" inkscape:label="Layer 1" inkscape:groupmode="layer">
	<path id="path2558_17_" fill="#010101" d="M437.793,131.485c-1.012-0.332-1.814-1.078-2.043-1.902
		c-0.09-0.328-0.135-7.049-0.135-20.896V88.276h-0.514h-0.512v7.705c0,7.553-0.006,7.713-0.266,8.17
		c-0.336,0.592-0.715,0.869-1.453,1.066c-1.094,0.293-2.289-0.266-2.719-1.27c-0.277-0.645-0.26-17.868,0.02-18.936
		c0.627-2.406,2.656-4.378,5.023-4.88c1.248-0.264,12.777-0.267,14.021-0.004c1.266,0.269,2.354,0.876,3.316,1.852
		c0.99,1.004,1.453,1.818,1.797,3.166c0.24,0.939,0.254,1.443,0.254,9.627c0,7.481-0.025,8.698-0.197,9.106
		c-0.266,0.635-0.539,0.922-1.148,1.201c-1.012,0.465-2.299,0.166-2.896-0.672l-0.309-0.432L450,96.126l-0.035-7.851h-0.51h-0.51
		v20.512c0,22.484,0.051,20.99-0.744,21.828c-0.629,0.662-1.268,0.912-2.332,0.912s-1.705-0.25-2.334-0.912
		c-0.777-0.82-0.742-0.186-0.742-13.369v-12.053h-0.514h-0.512v12.053c0,9.822-0.033,12.129-0.174,12.465
		c-0.258,0.615-0.82,1.223-1.41,1.523C439.615,131.526,438.326,131.661,437.793,131.485z M440.676,78.696
		c-1.549-0.554-2.508-1.407-3.186-2.837c-0.375-0.792-0.402-0.944-0.402-2.261c0-1.333,0.023-1.46,0.416-2.254
		c1.953-3.969,7.594-3.979,9.545-0.017c0.402,0.82,0.422,0.924,0.422,2.335c0,1.357-0.029,1.536-0.357,2.206
		c-0.555,1.126-1.371,1.948-2.486,2.5c-0.867,0.428-1.088,0.481-2.137,0.518C441.607,78.916,441.16,78.869,440.676,78.696z"/>
</g>
<g id="layer1_16_" inkscape:label="Layer 1" inkscape:groupmode="layer">
	<path id="path2558_16_" fill="#010101" d="M467.875,131.485c-1.012-0.332-1.814-1.078-2.043-1.902
		c-0.092-0.328-0.135-7.049-0.135-20.896l-0.002-20.411h-0.512h-0.512v7.705c0,7.553-0.006,7.713-0.266,8.17
		c-0.338,0.592-0.715,0.869-1.455,1.066c-1.094,0.293-2.289-0.266-2.719-1.27c-0.275-0.645-0.258-17.868,0.021-18.936
		c0.625-2.406,2.656-4.378,5.023-4.88c1.246-0.264,12.777-0.267,14.021-0.004c1.266,0.269,2.354,0.876,3.316,1.852
		c0.99,1.004,1.453,1.818,1.797,3.166c0.24,0.939,0.254,1.443,0.254,9.627c0,7.481-0.027,8.698-0.197,9.106
		c-0.266,0.635-0.539,0.922-1.148,1.201c-1.012,0.465-2.299,0.166-2.896-0.672l-0.309-0.432l-0.035-7.851l-0.035-7.851h-0.51h-0.51
		v20.512c0,22.484,0.051,20.99-0.742,21.828c-0.629,0.662-1.27,0.912-2.334,0.912s-1.703-0.25-2.332-0.912
		c-0.779-0.82-0.744-0.186-0.744-13.369v-12.053h-0.512h-0.514v12.053c0,9.822-0.031,12.129-0.172,12.465
		c-0.258,0.615-0.82,1.223-1.41,1.523C469.697,131.526,468.408,131.661,467.875,131.485z M470.758,78.696
		c-1.551-0.554-2.508-1.407-3.186-2.837c-0.375-0.792-0.402-0.944-0.402-2.261c0-1.333,0.023-1.46,0.414-2.254
		c1.955-3.969,7.596-3.979,9.545-0.017c0.404,0.82,0.424,0.924,0.424,2.335c0,1.357-0.029,1.536-0.359,2.206
		c-0.553,1.126-1.369,1.948-2.486,2.5c-0.865,0.428-1.086,0.481-2.137,0.518C471.689,78.916,471.24,78.869,470.758,78.696z"/>
</g>
</svg>
